<svg width="884" height="127" fill="none" xmlns="http://www.w3.org/2000/svg"><path d="M842.397 103.587V28.346h-29.451V17.667H884v10.679h-29.454v75.241h-12.149zM63.49 0C45.96 0 30.086 7.108 18.597 18.599 7.108 30.089 0 45.966 0 63.5c0 4.14.397 8.188 1.155 12.108l10.07-10.033c-.577-14.63 4.927-28.713 15.28-39.068 9.463-9.466 22.54-15.322 36.985-15.322 14.444 0 27.52 5.856 36.987 15.322 9.464 9.467 15.318 22.546 15.318 36.993 0 28.257-23.985 52.313-52.305 52.313a52.173 52.173 0 01-19.294-3.673l-8.483 8.474C44.105 124.707 53.53 127 63.49 127c17.531 0 33.405-7.106 44.894-18.598 11.489-11.49 18.596-27.366 18.596-44.9 0-17.536-7.107-33.412-18.596-44.904C96.895 7.109 81.021 0 63.49 0zm.035 29.304l-.035-.033-.13.13L4.853 87.885a63.31 63.31 0 005.489 10.362L63.49 45.09l.034.032V29.304zm-.164 31.82l-45.968 46.041a63.883 63.883 0 008.373 7.413l37.595-37.636V61.124zm95.504 42.463v-85.92h38.534c9.899 0 17.509 1.986 22.826 5.954 5.318 3.968 7.976 9.39 7.976 16.263 0 4.663-1.043 8.591-3.13 11.782-2.084 3.192-4.888 5.647-8.404 7.365l-.111.053c1.368.379 2.671.852 3.915 1.42 3.764 1.719 6.749 4.235 8.958 7.549 2.208 3.314 3.314 7.425 3.314 12.336 0 7.363-2.762 13.07-8.285 17.12-5.522 4.051-13.725 6.078-24.606 6.078h-40.987zm12.272-9.943h28.225c6.791 0 11.984-1.146 15.584-3.437 3.602-2.29 5.401-5.891 5.401-10.8 0-4.991-1.799-8.634-5.401-10.925-3.6-2.29-8.793-3.437-15.584-3.437h-28.225v28.599zm0-38.54h25.157c6.217 0 11.045-1.146 14.481-3.438 3.436-2.29 5.155-5.727 5.155-10.309 0-4.582-1.719-8.019-5.155-10.31-3.436-2.29-8.264-3.437-14.481-3.437h-25.157v27.493zm80.627 48.483v-85.92h12.271v75.24h46.51v10.68h-58.781zm107.01.981c-11.29 0-20.168-3.233-26.63-9.697-6.464-6.465-9.694-15.915-9.694-28.353v-48.85h12.272v48.36c0 9.573 2.105 16.569 6.318 20.987 4.215 4.42 10.167 6.629 17.856 6.629 7.773 0 13.765-2.21 17.979-6.629 4.213-4.418 6.32-11.414 6.32-20.988v-48.36h11.902v48.85c0 12.44-3.211 21.889-9.633 28.354-6.421 6.464-15.318 9.697-26.69 9.697zm70.817-11.66h50.068v10.679h-62.34V17.669h62.34v10.678h-50.068v26.389h43.075v10.433h-43.075v27.739zm69.949 10.679v-85.92h10.062l35.818 60.354 35.359-60.354h10.063l.123 85.92h-11.781l-.115-62.71-33.649 56.85-34.132-56.459.032 62.319h-11.78zm155.974.981c-6.543 0-12.618-1.106-18.223-3.314-5.604-2.21-10.451-5.298-14.542-9.267-4.091-3.968-7.282-8.612-9.573-13.93-2.29-5.32-3.435-11.129-3.435-17.43 0-6.302 1.145-12.111 3.435-17.43 2.291-5.318 5.482-9.961 9.573-13.93 4.091-3.97 8.919-7.056 14.482-9.267 5.563-2.209 11.658-3.315 18.283-3.315 6.546 0 12.58 1.086 18.101 3.254 5.522 2.17 10.35 5.236 14.481 9.204 4.132 3.97 7.322 8.614 9.573 13.932 2.249 5.319 3.375 11.17 3.375 17.551 0 6.383-1.126 12.234-3.375 17.552-2.251 5.32-5.441 9.963-9.573 13.93-4.131 3.97-8.959 7.038-14.481 9.206-5.521 2.169-11.555 3.254-18.101 3.254zm0-10.924c4.746 0 9.143-.819 13.192-2.455 4.051-1.636 7.568-3.947 10.555-6.935 2.985-2.986 5.318-6.485 6.995-10.493 1.677-4.01 2.516-8.388 2.516-13.135 0-4.745-.839-9.122-2.516-13.133-1.677-4.008-4.01-7.507-6.995-10.494-2.987-2.985-6.504-5.297-10.555-6.934-4.049-1.637-8.446-2.455-13.192-2.455-4.826 0-9.265.818-13.315 2.456-4.049 1.636-7.588 3.948-10.615 6.933-3.027 2.987-5.379 6.486-7.055 10.493-1.679 4.012-2.516 8.39-2.516 13.134 0 4.747.837 9.124 2.516 13.135 1.676 4.008 4.028 7.508 7.055 10.493 3.027 2.988 6.566 5.299 10.615 6.935 4.05 1.636 8.489 2.455 13.315 2.455zm64.305 9.943v-85.92h10.064l51.541 64.023-.001-64.023h12.273v85.92h-10.064l-51.516-63.991-.024 63.991h-12.273z" fill="#fff"/></svg>