<svg width="422" height="92" fill="none" xmlns="http://www.w3.org/2000/svg"><path d="M119.984 1.784L94.128 91H81.072L60.336 19.192 38.832 91l-12.928.128L.944 1.784H13.36l19.456 75.648L54.32 1.784h13.056l20.48 75.392L107.44 1.784h12.544zm24.395 9.472V41.08h32.512v9.6h-32.512V81.4h36.352V91h-48V1.656h48v9.6h-36.352zm116.39 80.64c-5.888 0-11.179-1.024-15.872-3.072-4.608-2.133-8.235-5.035-10.88-8.704-2.645-3.755-4.011-8.064-4.096-12.928h12.416c.427 4.181 2.133 7.723 5.12 10.624 3.072 2.816 7.509 4.224 13.312 4.224 5.547 0 9.899-1.365 13.056-4.096 3.243-2.816 4.864-6.4 4.864-10.752 0-3.413-.939-6.187-2.816-8.32-1.877-2.133-4.224-3.755-7.04-4.864-2.816-1.11-6.613-2.304-11.392-3.584-5.888-1.536-10.624-3.072-14.208-4.608-3.499-1.536-6.528-3.925-9.088-7.168-2.475-3.328-3.712-7.765-3.712-13.312 0-4.864 1.237-9.173 3.712-12.928 2.475-3.755 5.931-6.656 10.368-8.704 4.523-2.048 9.685-3.072 15.488-3.072 8.363 0 15.189 2.09 20.48 6.272 5.376 4.181 8.405 9.728 9.088 16.64h-12.8c-.427-3.413-2.219-6.4-5.376-8.96-3.157-2.645-7.339-3.968-12.544-3.968-4.864 0-8.832 1.28-11.904 3.84-3.072 2.475-4.608 5.973-4.608 10.496 0 3.243.896 5.888 2.688 7.936 1.877 2.048 4.139 3.627 6.784 4.736 2.731 1.024 6.528 2.219 11.392 3.584 5.888 1.621 10.624 3.243 14.208 4.864 3.584 1.536 6.656 3.968 9.216 7.296 2.56 3.243 3.84 7.68 3.84 13.312 0 4.352-1.152 8.448-3.456 12.288-2.304 3.84-5.717 6.955-10.24 9.344-4.523 2.39-9.856 3.584-16 3.584zm58.485-80.64V41.08h32.512v9.6h-32.512V81.4h36.352V91h-48V1.656h48v9.6h-36.352zm65.625 0V41.08h32.512v9.6h-32.512V81.4h36.352V91h-48V1.656h48v9.6h-36.352z" fill="#5496B1"/></svg>