<svg width="698" height="92" fill="none" xmlns="http://www.w3.org/2000/svg"><path d="M60.768 1.784v9.472h-24.32V91H24.8V11.256H.352V1.784h60.416zm83.074 0V91h-11.648V50.552h-45.44V91H75.106V1.784h11.648v39.168h45.44V1.784h11.648zm31.537 9.472V41.08h32.512v9.6h-32.512V81.4h36.352V91h-48V1.656h48v9.6h-36.352zm200.23-9.472L349.753 91h-13.056l-20.736-71.808L294.457 91l-12.928.128-24.96-89.344h12.416l19.456 75.648 21.504-75.648h13.056l20.48 75.392 19.584-75.392h12.544zm53.195 90.112c-8.277 0-15.829-1.92-22.656-5.76-6.827-3.925-12.245-9.344-16.256-16.256-3.925-6.997-5.888-14.848-5.888-23.552 0-8.704 1.963-16.512 5.888-23.424 4.011-6.997 9.429-12.416 16.256-16.256C412.975 2.723 420.527.76 428.804.76c8.363 0 15.957 1.963 22.784 5.888 6.827 3.84 12.203 9.216 16.128 16.128 3.925 6.912 5.888 14.763 5.888 23.552 0 8.79-1.963 16.64-5.888 23.552-3.925 6.912-9.301 12.33-16.128 16.256-6.827 3.84-14.421 5.76-22.784 5.76zm0-10.112c6.229 0 11.819-1.45 16.768-4.352 5.035-2.901 8.96-7.04 11.776-12.416 2.901-5.376 4.352-11.605 4.352-18.688 0-7.168-1.451-13.397-4.352-18.688-2.816-5.376-6.699-9.515-11.648-12.416s-10.581-4.352-16.896-4.352c-6.315 0-11.947 1.45-16.896 4.352-4.949 2.901-8.875 7.04-11.776 12.416-2.816 5.29-4.224 11.52-4.224 18.688 0 7.083 1.408 13.312 4.224 18.688 2.901 5.376 6.827 9.515 11.776 12.416 5.035 2.901 10.667 4.352 16.896 4.352zM535.957 91l-21.248-36.48h-14.08V91h-11.648V1.784h28.8c6.741 0 12.416 1.152 17.024 3.456 4.693 2.304 8.192 5.419 10.496 9.344 2.304 3.925 3.456 8.405 3.456 13.44 0 6.144-1.792 11.563-5.376 16.256-3.499 4.693-8.789 7.808-15.872 9.344L549.909 91h-13.952zm-35.328-45.824h17.152c6.315 0 11.051-1.536 14.208-4.608 3.157-3.157 4.736-7.339 4.736-12.544 0-5.29-1.579-9.387-4.736-12.288-3.072-2.901-7.808-4.352-14.208-4.352h-17.152v33.792zm77.875 36.352h31.232V91h-42.88V1.784h11.648v79.744zm71.378-79.744c9.728 0 18.133 1.835 25.216 5.504 7.168 3.584 12.629 8.747 16.384 15.488 3.84 6.741 5.76 14.677 5.76 23.808 0 9.13-1.92 17.067-5.76 23.808-3.755 6.656-9.216 11.776-16.384 15.36C668.015 89.251 659.61 91 649.882 91h-27.776V1.784h27.776zm0 79.616c11.52 0 20.309-3.03 26.368-9.088 6.059-6.144 9.088-14.72 9.088-25.728 0-11.093-3.072-19.755-9.216-25.984-6.059-6.23-14.805-9.344-26.24-9.344h-16.128V81.4h16.128z" fill="#1C3144"/></svg>