<svg width="561" height="92" fill="none" xmlns="http://www.w3.org/2000/svg"><path d="M58.592 71.16H19.68L12.512 91H.224L32.48 2.296h13.44L78.048 91H65.76l-7.168-19.84zm-3.328-9.472L39.136 16.632 23.008 61.688h32.256zm65.13 30.208c-5.888 0-11.179-1.024-15.872-3.072-4.608-2.133-8.235-5.035-10.88-8.704-2.645-3.755-4.01-8.064-4.096-12.928h12.416c.427 4.181 2.133 7.723 5.12 10.624 3.072 2.816 7.509 4.224 13.312 4.224 5.547 0 9.899-1.365 13.056-4.096 3.243-2.816 4.864-6.4 4.864-10.752 0-3.413-.939-6.187-2.816-8.32-1.877-2.133-4.224-3.755-7.04-4.864-2.816-1.11-6.613-2.304-11.392-3.584-5.888-1.536-10.624-3.072-14.208-4.608-3.499-1.536-6.528-3.925-9.088-7.168-2.475-3.328-3.712-7.765-3.712-13.312 0-4.864 1.237-9.173 3.712-12.928 2.475-3.755 5.93-6.656 10.368-8.704 4.523-2.048 9.685-3.072 15.488-3.072 8.363 0 15.189 2.09 20.48 6.272 5.376 4.181 8.405 9.728 9.088 16.64h-12.8c-.427-3.413-2.219-6.4-5.376-8.96-3.157-2.645-7.339-3.968-12.544-3.968-4.864 0-8.832 1.28-11.904 3.84-3.072 2.475-4.608 5.973-4.608 10.496 0 3.243.896 5.888 2.688 7.936 1.877 2.048 4.139 3.627 6.784 4.736 2.731 1.024 6.528 2.219 11.392 3.584 5.888 1.621 10.624 3.243 14.208 4.864 3.584 1.536 6.656 3.968 9.216 7.296 2.56 3.243 3.84 7.68 3.84 13.312 0 4.352-1.152 8.448-3.456 12.288-2.304 3.84-5.717 6.955-10.24 9.344-4.523 2.39-9.856 3.584-16 3.584zM254.092 71.16H215.18L208.012 91h-12.288L227.98 2.296h13.44L273.548 91H261.26l-7.168-19.84zm-3.328-9.472l-16.128-45.056-16.128 45.056h32.256zm111.415 30.208c-8.277 0-15.829-1.92-22.656-5.76-6.827-3.925-12.245-9.344-16.256-16.256-3.925-6.997-5.888-14.848-5.888-23.552 0-8.704 1.963-16.512 5.888-23.424 4.011-6.997 9.429-12.416 16.256-16.256C346.35 2.723 353.902.76 362.179.76c8.363 0 15.957 1.963 22.784 5.888 6.827 3.84 12.203 9.216 16.128 16.128 3.925 6.912 5.888 14.763 5.888 23.552 0 8.79-1.963 16.64-5.888 23.552-3.925 6.912-9.301 12.33-16.128 16.256-6.827 3.84-14.421 5.76-22.784 5.76zm0-10.112c6.229 0 11.819-1.45 16.768-4.352 5.035-2.901 8.96-7.04 11.776-12.416 2.901-5.376 4.352-11.605 4.352-18.688 0-7.168-1.451-13.397-4.352-18.688-2.816-5.376-6.699-9.515-11.648-12.416s-10.581-4.352-16.896-4.352c-6.315 0-11.947 1.45-16.896 4.352-4.949 2.901-8.875 7.04-11.776 12.416-2.816 5.29-4.224 11.52-4.224 18.688 0 7.083 1.408 13.312 4.224 18.688 2.901 5.376 6.827 9.515 11.776 12.416 5.035 2.901 10.667 4.352 16.896 4.352zM492.5 91h-11.648l-46.848-71.04V91h-11.648V1.656h11.648l46.848 70.912V1.656H492.5V91zm31.504-79.744V41.08h32.512v9.6h-32.512V81.4h36.352V91h-48V1.656h48v9.6h-36.352z" fill="#1C3144"/></svg>