<svg width="432" height="432" fill="none" xmlns="http://www.w3.org/2000/svg"><path d="M63.27 63.264C102.358 24.18 156.356 0 216 0c59.643 0 113.646 24.18 152.733 63.264C407.82 102.353 432 156.356 432 216.004c0 59.645-24.18 113.648-63.267 152.732C329.646 407.828 275.643 432 216 432c-33.888 0-65.952-7.801-94.5-21.718l28.86-28.825c20.319 8.063 42.463 12.493 65.64 12.493 96.347 0 177.946-81.828 177.946-177.946 0-49.144-19.917-93.631-52.113-125.835C309.627 57.969 265.139 38.05 216 38.05c-49.143 0-93.633 19.917-125.83 52.118C54.95 125.392 36.225 173.3 38.188 223.06l-34.26 34.131A216.767 216.767 0 010 216.004c0-59.648 24.182-113.651 63.27-152.74z" fill="#F1F6F8"/><path d="M216 99.567l.117.114v53.804l-.117-.11-180.82 180.82a215.347 215.347 0 01-18.673-35.248L215.56 100.008l.441-.44zM59.174 364.531L215.56 207.919v53.805L87.66 389.747a217.376 217.376 0 01-28.485-25.216z" fill="#F1F6F8"/></svg>