<svg width="349" height="50" fill="none" xmlns="http://www.w3.org/2000/svg"><path d="M331.709 40.782V11.16h-11.597V6.956h27.979v4.204h-11.598v29.622h-4.784zM25 0A24.923 24.923 0 007.323 7.322 24.924 24.924 0 000 25c0 1.63.156 3.224.455 4.767l3.965-3.95a20.543 20.543 0 016.017-15.38A20.531 20.531 0 0125 4.403a20.535 20.535 0 0114.565 6.032A20.535 20.535 0 0145.596 25c0 11.125-9.444 20.596-20.596 20.596a20.55 20.55 0 01-7.597-1.446l-3.34 3.336A24.89 24.89 0 0025 50a24.92 24.92 0 0017.678-7.322A24.92 24.92 0 0050.001 25a24.924 24.924 0 00-7.323-17.678A24.924 24.924 0 0025 0zm.014 11.537L25 11.524l-.05.051L1.91 34.6a24.922 24.922 0 002.162 4.08L25 17.752l.014.013v-6.228zm-.065 12.528L6.85 42.19a25.156 25.156 0 003.297 2.919L24.95 30.291v-6.227zm37.607 16.717V6.956H77.73c3.897 0 6.894.781 8.988 2.344 2.093 1.562 3.14 3.696 3.14 6.402 0 1.836-.41 3.383-1.232 4.64-.82 1.256-1.925 2.222-3.31 2.898l-.043.021a10.4 10.4 0 011.541.56c1.483.676 2.658 1.667 3.528 2.971.87 1.305 1.305 2.924 1.305 4.857 0 2.9-1.088 5.146-3.263 6.74-2.174 1.595-5.404 2.393-9.689 2.393h-16.14zm4.832-3.914h11.114c2.674 0 4.72-.451 6.137-1.353 1.418-.902 2.127-2.32 2.127-4.253 0-1.964-.709-3.399-2.127-4.3-1.417-.902-3.463-1.354-6.136-1.354H67.388v11.26zm0-15.174h9.906c2.448 0 4.35-.45 5.703-1.353 1.353-.902 2.03-2.255 2.03-4.059 0-1.804-.677-3.157-2.03-4.059-1.353-.902-3.255-1.353-5.703-1.353h-9.906v10.824zm31.749 19.088V6.956h4.832v29.622h18.314v4.204H99.137zm42.137.387c-4.446 0-7.942-1.273-10.486-3.818-2.546-2.546-3.817-6.266-3.817-11.163V6.956h4.832v19.039c0 3.77.829 6.523 2.488 8.263 1.659 1.74 4.003 2.61 7.031 2.61 3.06 0 5.42-.87 7.079-2.61 1.659-1.74 2.489-4.494 2.489-8.263V6.955h4.687v19.233c0 4.897-1.265 8.617-3.793 11.163-2.529 2.545-6.032 3.818-10.51 3.818zm27.885-4.591h19.716v4.204h-24.548V6.956h24.548v4.204h-19.716v10.39h16.962v4.107h-16.962v10.92zm27.544 4.204V6.956h3.962l14.104 23.76 13.923-23.76h3.963l.048 33.826h-4.639l-.045-24.688-13.25 22.38-13.44-22.227.013 24.535h-4.639zm61.417.387c-2.576 0-4.968-.436-7.175-1.305-2.207-.87-4.116-2.086-5.726-3.649a16.84 16.84 0 01-3.77-5.484c-.902-2.094-1.352-4.381-1.352-6.863 0-2.48.45-4.767 1.352-6.861a16.845 16.845 0 013.77-5.485c1.61-1.562 3.512-2.778 5.702-3.648 2.191-.87 4.591-1.305 7.199-1.305 2.578 0 4.954.428 7.128 1.281 2.175.854 4.076 2.062 5.702 3.624a16.383 16.383 0 013.77 5.485c.885 2.093 1.329 4.397 1.329 6.91 0 2.512-.444 4.816-1.329 6.91a16.374 16.374 0 01-3.77 5.484c-1.626 1.563-3.527 2.771-5.702 3.625-2.174.853-4.55 1.28-7.128 1.28zm0-4.301c1.869 0 3.601-.323 5.195-.967a12.342 12.342 0 004.156-2.73 12.73 12.73 0 002.755-4.131c.66-1.58.991-3.303.991-5.171 0-1.869-.331-3.592-.991-5.171a12.735 12.735 0 00-2.755-4.131 12.354 12.354 0 00-4.156-2.73c-1.594-.645-3.326-.967-5.195-.967-1.9 0-3.648.322-5.242.967a12.531 12.531 0 00-6.958 6.861c-.661 1.579-.991 3.302-.991 5.17 0 1.87.33 3.593.991 5.172a12.526 12.526 0 002.778 4.13 12.604 12.604 0 004.18 2.731c1.594.644 3.342.967 5.242.967zm25.322 3.914V6.956h3.962L307.7 32.16l-.001-25.205h4.833v33.826h-3.963L288.284 15.59l-.01 25.193h-4.832z" fill="#1C3144"/></svg>