<svg width="180" height="129" fill="none" xmlns="http://www.w3.org/2000/svg"><mask id="mask0_13_639" style="mask-type:luminance" maskUnits="userSpaceOnUse" x="0" y="0" width="180" height="129"><path d="M180 0H0v128.828h180V0z" fill="#fff"/></mask><g mask="url(#mask0_13_639)" fill="#fff"><path d="M9.442 105.385h4.591l5.203 13.72 5.204-13.72h4.591l-7.958 19.513H17.4l-7.958-19.513zm28.465 0h3.98l8.264 19.513H45.56l-1.837-4.268h-8.264l-1.837 4.268h-3.979l8.264-19.513zm4.592 11.281l-2.755-6.097-2.449 6.402H42.5v-.305zm12.855-11.281h8.876c2.45 0 4.285.611 5.51 1.83 1.224 1.22 1.53 2.439 1.53 4.574 0 3.048-1.837 5.182-4.285 6.097l4.591 7.012h-4.897l-4.285-6.097h-3.367v6.097h-4.285v-19.513h.612zm8.57 9.452c2.143 0 3.367-1.219 3.367-2.744 0-1.829-1.224-2.743-3.367-2.743H59.64v5.487h4.285zm19.896-9.452h3.978l8.265 19.513h-4.285l-1.837-4.268h-8.264l-1.836 4.268h-4.286l8.264-19.513zm4.59 11.281l-2.448-6.402-2.449 6.402h4.898zm12.856-11.281h4.591l5.203 8.233 5.204-8.233h4.59v19.209h-4.59v-12.501l-5.509 8.233-5.51-8.233v12.501h-4.285v-19.209h.306zm32.75 0h3.979l8.264 19.513h-4.591l-1.836-4.268h-8.264l-1.837 4.268h-4.285l8.57-19.513zm4.286 11.281l-2.449-6.402-2.449 6.402h4.898zm12.855-11.281h8.877c2.448 0 4.285.611 5.509 1.83 1.224 1.22 1.53 2.439 1.53 4.574 0 3.048-1.836 5.182-4.285 6.097l4.591 7.012h-4.897l-4.285-6.097h-3.367v6.097h-4.285v-19.513h.612zm8.571 9.452c2.142 0 3.366-1.219 3.366-2.744 0-1.829-1.224-2.743-3.366-2.743h-4.286v5.487h4.286zm-94.58-64.943c2.755-3.048 5.816-6.097 9.183-8.841 1.53-1.22 3.06-2.744 4.897-3.66.918-.609 1.53-.914 2.45-1.524.917-.305 1.53-.914 2.447-.914 1.837-.61 3.673-.915 5.204-.915h2.754c.307 0 .919 0 1.225.305.306 0 .612 0 .918.305h1.836c.306 0-.306 0 1.224-.305.92-.915 1.531-.305 2.45-3.049 0-3.354-.919-3.354-.919-3.354l-.612-.61c-.306 0-.306-.305-.612-.305l-.613-.304-.918-.305c-.612-.305-1.224-.305-1.836-.61l-1.53-.61c-.306 0-.613-.305-.92-.305-1.223-.61-2.447-1.524-3.365-2.744-.919-1.22-1.838-2.744-2.755-4.573-.307-.915-.613-1.83-1.225-3.05-.918-1.524-1.224-2.438-1.836-3.658-1.224-2.134-2.45-4.268-4.591-6.098.612 0 .918.305 1.53.305 1.837.61 3.673 1.525 5.51 2.744 3.367 2.134 6.121 5.183 8.264 8.842 1.224 1.83 2.142 3.659 3.06 5.793l.918 1.524c.306.61.306.915 1.531 1.83.612.305 1.225.61 2.143.61.306 0 .918 0 1.53-.305.306 0 .612-.305.612-.61s.306-.61.306-.915c0-.305 0-.61-.306-.914-.612-.915-.918-.61-1.224-.915h-.612s-.306 0-.306-.305l.306-.305 1.224-.915c1.837-1.22 3.673-2.439 5.509-3.353 3.367-2.44 7.347-4.269 11.325-5.793 7.959-3.05 16.529-4.574 24.793-4.269 4.285 0 8.264.61 12.549 1.525 1.225.305 2.143.305 3.368.61h1.224c.306 0 .612 0 1.224-.305l-1.224 1.22-4.898 4.268c-2.755 2.744-6.427 4.878-9.795 7.317-1.224.915-2.754 1.524-3.979 2.44-.918.609-1.53.914-2.448 1.219-.918.305-1.53.61-2.448.915l-2.755.914c-.919.305-1.837.61-3.061.915-.613 0-1.225.305-1.531.61-.918.305-3.06.914-4.284 1.829-1.225.915-2.45 1.83-3.674 3.354l-.611.61c0 .304-.307.304-.307.61l-.612.61s-.306.609-.306.914c0 .305-.307.915 0 1.83 0 .609.612 2.133 1.836 3.048.918.915 1.837.915 2.755 1.22h1.225c1.224-.305 1.53-.305 1.836-.61 1.224-.61 1.53-.915 2.142-1.22 1.224-.914 1.837-1.524 2.755-2.439.306-.305 1.837-.914 3.979-1.524.919-.305 1.837-.61 3.061-.915l-1.224 1.22c-3.061 3.049-6.122 6.098-9.183 8.842-6.428 5.792-12.855 11.28-19.895 16.464-3.367 2.439-7.04 4.878-10.712 6.707-3.674 1.525-7.959 3.354-12.243 2.744l-.308.915c4.592 1.22 9.183 0 13.162-1.524 4.286-1.525 8.264-3.66 11.937-5.793 7.652-4.574 14.387-9.757 21.426-15.245 7.04-5.488 13.467-10.976 20.201-16.77 3.367-3.048 6.735-5.487 9.795-8.841 1.53-1.524 3.061-3.049 4.591-4.878.612-.915 1.53-1.525 2.143-2.44l1.53-1.829.613-.915.306-.61c.305-.304.305-.304.612-1.524 0-.61.306-.305 0-1.83-.307-1.219-.612-1.828-1.225-2.438V7.514c0-.61-.306-1.524-.611-2.134-.614-1.524-2.144-2.439-3.062-2.744-2.142-.61-3.673-.61-5.203-.305-.612 0-1.53.305-2.143.61h-.611c-.919 0-1.838 0-3.062-.305-3.979-.305-8.57-.61-13.161-.305-9.183.61-17.752 3.05-26.017 6.708-3.979 1.83-7.652 3.963-11.631 6.098l-5.51 3.658-1.224.915-.612.61h-.306c-.918-1.83-1.837-3.964-2.755-5.793-.918-1.83-2.142-3.659-3.673-5.488-1.53-1.83-3.367-3.354-5.203-4.574-1.837-1.22-3.979-2.439-6.122-3.353C79.534.807 78.31.197 77.086.197c-1.225-.305-2.45-.305-4.286 0-.612.305-.918.305-1.53.915-.612.304-.919 1.22-1.224 2.134-.306.61-.306 1.524 0 2.439.305.915.612 1.22 1.224 1.83 1.224 1.219 2.449 1.524 2.142 1.829.919 1.22 1.837 2.744 2.449 4.573l.918 2.744c.306.915.613 2.134.919 3.354.918 2.44 1.836 4.573 3.367 6.708.306.305.612.914.918 1.22-.306 0-.612 0-.612.304-4.898 2.134-8.265 5.183-11.325 8.537-3.061 3.354-5.816 7.013-7.958 10.671-2.143 3.659-4.592 7.623-5.51 12.196l.918.305c1.837-3.659 4.898-7.013 7.652-10.062z"/><path d="M156.054 55.991c-8.264.915-16.528 4.269-23.262 9.757-1.837 1.524-3.061 2.744-4.591 3.659-1.53 1.22-3.061 2.134-4.591 3.353-3.061 2.135-6.428 3.66-10.101 5.183-7.04 2.745-14.691 4.574-22.344 4.879-7.652.304-15.61-.915-22.344-4.879-6.734-4.268-13.467-8.841-21.425-11.585-3.98-1.22-8.265-1.83-12.55-1.525-4.285.305-8.57 1.525-12.243 2.744-7.04 2.44-14.692 3.659-22.65 1.83v.61c3.367 2.134 7.652 3.353 11.631 3.658 4.285.305 8.57-.305 12.55-1.524 7.345-2.44 14.691-3.05 22.343-2.135 3.673.61 7.653 1.83 11.02 3.354 3.672 1.525 7.04 3.659 10.406 5.793 7.04 4.573 14.998 6.708 23.262 7.318 8.264.61 16.528-.61 24.487-3.355 3.978-1.523 7.651-3.048 11.325-5.183 1.836-1.22 3.672-2.134 5.203-3.353 1.836-1.22 3.367-2.744 4.591-3.964 5.815-4.878 12.55-8.232 19.895-9.757 7.346-1.524 15.305-1.829 22.956-.304l.306-.61c-7.039-3.659-15.61-4.878-23.874-3.964z"/></g></svg>