<svg width="30" height="23" fill="none" xmlns="http://www.w3.org/2000/svg"><g clip-path="url(#clip0_13_684)"><path d="M29.752 2.423A3.75 3.75 0 0026.25 0H3.75A3.75 3.75 0 00.225 2.498 3.5 3.5 0 000 3.75v15a3.75 3.75 0 002.344 3.473c.446.184.924.278 1.406.277h22.5a3.43 3.43 0 001.336-.262 3.675 3.675 0 001.945-1.665 3.75 3.75 0 00.47-1.823v-15a3.698 3.698 0 00-.25-1.327zM2.498 3.75A1.256 1.256 0 013.75 2.498h22.5a1.256 1.256 0 011.252 1.252v.24l-9.966 7.5-2.067 1.598-.469.351-.469-.366-2.09-1.56-9.943-7.477V3.75zm0 15V7.162l7.866 5.911-7.837 5.888a.937.937 0 01-.029-.211zm2.813 1.252l7.14-5.363 1.8 1.36a1.237 1.237 0 001.5 0l1.785-1.35 7.087 5.353H5.311zm22.19-1.252a.937.937 0 01-.037.262l-7.851-5.939 7.889-5.962V18.75z" fill="#5496B1"/></g><defs><clipPath id="clip0_13_684"><path fill="#fff" d="M0 0h30v22.5H0z"/></clipPath></defs></svg>