<svg width="507" height="200" fill="none" xmlns="http://www.w3.org/2000/svg"><mask id="mask0_111_22" style="mask-type:alpha" maskUnits="userSpaceOnUse" x="0" y="0" width="507" height="199"><path fill="#D9D9D9" d="M0 0h507v199H0z"/></mask><g mask="url(#mask0_111_22)" fill="#BCD4DE"><path d="M122.529-30.477C153.744-61.69 196.868-81 244.5-81c47.631 0 90.759 19.31 121.975 50.523C397.69.74 417 43.868 417 91.503c0 47.633-19.31 90.761-50.525 121.974C335.259 244.696 292.131 264 244.5 264c-27.063 0-52.67-6.23-75.469-17.344l23.048-23.021c16.227 6.44 33.911 9.978 52.421 9.978 76.944 0 142.11-65.349 142.11-142.11 0-39.247-15.906-74.775-41.618-100.493-25.721-25.716-61.249-41.622-100.492-41.622-39.246 0-74.776 15.906-100.49 41.622-28.125 28.13-43.081 66.39-41.512 106.13l-27.36 27.256A173.108 173.108 0 0172 91.503C72 43.868 91.312.74 122.529-30.477z"/><path d="M244.5-1.484l.093.09v42.97l-.093-.089-144.405 144.405a171.953 171.953 0 01-14.912-28.15L244.148-1.132l.352-.353zM119.257 210.118L244.148 85.046v42.97l-102.143 102.24a173.488 173.488 0 01-22.748-20.138z"/></g></svg>