<svg width="884" height="127" viewBox="0 0 884 127" fill="none" xmlns="http://www.w3.org/2000/svg">
<path d="M842.397 103.587V28.3458H812.946V17.6672H884V28.3458H854.546V103.587H842.397ZM63.4902 0C45.9587 0 30.0865 7.10822 18.5975 18.5985C7.1081 30.0899 0 45.9658 0 63.5011C0 67.6415 0.396692 71.6891 1.15472 75.6095L11.2249 65.5759C10.6478 50.9469 16.1521 36.8628 26.5041 26.5079C35.9681 17.0417 49.0453 11.1863 63.4902 11.1863C77.934 11.1863 91.0106 17.0417 100.477 26.5079C109.941 35.9753 115.795 49.0537 115.795 63.5011C115.795 91.7582 91.8102 115.814 63.4902 115.814C56.6776 115.814 50.1688 114.512 44.1962 112.141L35.7132 120.615C44.1045 124.707 53.5294 127 63.4902 127C81.0214 127 96.8951 119.894 108.384 108.402C119.873 96.9116 126.98 81.0356 126.98 63.5011C126.98 45.9658 119.873 30.0899 108.384 18.5985C96.8951 7.10822 81.0214 0 63.4902 0ZM63.5245 29.3044L63.4902 29.2709L63.3606 29.4005L4.85204 87.8849C6.36368 91.522 8.20754 94.9868 10.3406 98.2471L63.4902 45.0895L63.5245 45.1218V29.3044ZM63.3606 61.1243L17.3934 107.165C19.9622 109.876 22.7644 112.357 25.766 114.578L63.3606 76.942V61.1243ZM158.865 103.587V17.6672H197.399C207.298 17.6672 214.908 19.6532 220.225 23.6215C225.543 27.5888 228.201 33.0105 228.201 39.884C228.201 44.5475 227.158 48.475 225.071 51.6664C222.987 54.8578 220.183 57.3128 216.667 59.0306L216.556 59.0837C217.924 59.4628 219.227 59.9362 220.471 60.5042C224.235 62.2228 227.22 64.7386 229.429 68.053C231.637 71.3668 232.743 75.478 232.743 80.3891C232.743 87.7522 229.981 93.4591 224.458 97.5099C218.936 101.56 210.733 103.587 199.852 103.587H158.865ZM171.137 93.644H199.362C206.153 93.644 211.346 92.4983 214.946 90.2072C218.548 87.9162 220.347 84.3155 220.347 79.4062C220.347 74.4159 218.548 70.7733 214.946 68.4822C211.346 66.1912 206.153 65.0454 199.362 65.0454H171.137V93.644ZM171.137 55.1032H196.294C202.511 55.1032 207.339 53.9575 210.775 51.6664C214.211 49.3754 215.93 45.9386 215.93 41.3572C215.93 36.7751 214.211 33.3383 210.775 31.0473C207.339 28.7562 202.511 27.6105 196.294 27.6105H171.137V55.1032ZM251.764 103.587V17.6672H264.035V92.9079H310.545V103.587H251.764ZM358.774 104.568C347.484 104.568 338.606 101.335 332.144 94.8711C325.68 88.4058 322.45 78.9564 322.45 66.5179V17.6672H334.722V66.0272C334.722 75.6011 336.827 82.5965 341.04 87.0151C345.255 91.4343 351.207 93.644 358.896 93.644C366.669 93.644 372.661 91.4343 376.875 87.0151C381.088 82.5965 383.195 75.6011 383.195 66.0272V17.6672H395.097V66.5179C395.097 78.9564 391.886 88.4058 385.464 94.8711C379.043 101.335 370.146 104.568 358.774 104.568ZM429.591 92.9079H479.659V103.587C458.881 103.587 438.1 103.587 417.319 103.587V17.669H479.659V28.3466H429.591V54.7355H472.666V65.1689H429.591V92.9079ZM499.54 103.587V17.6672H509.602L545.42 78.0207L580.779 17.6672H590.842L590.965 103.587H579.184L579.069 40.8779L545.42 97.7262L511.288 41.2685L511.32 103.587H499.54ZM655.514 104.568C648.971 104.568 642.896 103.462 637.291 101.254C631.687 99.0439 626.84 95.956 622.749 91.9866C618.658 88.0186 615.467 83.3746 613.176 78.0561C610.886 72.7375 609.741 66.9283 609.741 60.6262C609.741 54.3251 610.886 48.5159 613.176 43.1973C615.467 37.8788 618.658 33.2359 622.749 29.2668C626.84 25.2973 631.668 22.2106 637.231 19.9999C642.794 17.7913 648.889 16.6854 655.514 16.6854C662.06 16.6854 668.094 17.7714 673.615 19.9394C679.137 22.1082 683.965 25.1754 688.096 29.1434C692.228 33.1129 695.418 37.7565 697.669 43.075C699.918 48.3935 701.044 54.2448 701.044 60.6262C701.044 67.009 699.918 72.8598 697.669 78.1784C695.418 83.498 692.228 88.1405 688.096 92.1089C683.965 96.0783 679.137 99.1463 673.615 101.314C668.094 103.483 662.06 104.568 655.514 104.568ZM655.514 93.644C660.26 93.644 664.657 92.8254 668.706 91.189C672.757 89.5526 676.274 87.2416 679.261 84.254C682.246 81.2685 684.579 77.7691 686.256 73.7609C687.933 69.7502 688.772 65.3726 688.772 60.6262C688.772 55.8812 687.933 51.5036 686.256 47.4925C684.579 43.4847 682.246 39.9861 679.261 36.9995C676.274 34.014 672.757 31.702 668.706 30.0655C664.657 28.4284 660.26 27.6105 655.514 27.6105C650.688 27.6105 646.249 28.4284 642.199 30.0655C638.15 31.702 634.611 34.014 631.584 36.9995C628.557 39.9861 626.205 43.4847 624.529 47.4925C622.85 51.5036 622.013 55.8812 622.013 60.6262C622.013 65.3726 622.85 69.7502 624.529 73.7609C626.205 77.7691 628.557 81.2685 631.584 84.254C634.611 87.2416 638.15 89.5526 642.199 91.189C646.249 92.8254 650.688 93.644 655.514 93.644ZM719.819 103.587V17.6672H729.883L781.424 81.6903L781.423 17.6672H793.696V103.587H783.632L732.116 39.5956L732.092 103.587H719.819Z" fill="white"/>
</svg>
