<svg width="422" height="92" viewBox="0 0 422 92" fill="none" xmlns="http://www.w3.org/2000/svg">
<path d="M119.984 1.78399L94.128 91H81.072L60.336 19.192L38.832 91L25.904 91.128L0.94397 1.78399H13.36L32.816 77.432L54.32 1.78399H67.376L87.856 77.176L107.44 1.78399H119.984Z" fill="#5496B1"/>
<path d="M144.379 11.256V41.08H176.891V50.68H144.379V81.4H180.731V91H132.731V1.65599H180.731V11.256H144.379Z" fill="#5496B1"/>
<path d="M260.769 91.896C254.881 91.896 249.59 90.872 244.897 88.824C240.289 86.6907 236.662 83.7893 234.017 80.12C231.372 76.3653 230.006 72.056 229.921 67.192H242.337C242.764 71.3733 244.47 74.9147 247.457 77.816C250.529 80.632 254.966 82.04 260.769 82.04C266.316 82.04 270.668 80.6747 273.825 77.944C277.068 75.128 278.689 71.544 278.689 67.192C278.689 63.7787 277.75 61.0053 275.873 58.872C273.996 56.7387 271.649 55.1173 268.833 54.008C266.017 52.8987 262.22 51.704 257.441 50.424C251.553 48.888 246.817 47.352 243.233 45.816C239.734 44.28 236.705 41.8907 234.145 38.648C231.67 35.32 230.433 30.8827 230.433 25.336C230.433 20.472 231.67 16.1627 234.145 12.408C236.62 8.65332 240.076 5.75199 244.513 3.70399C249.036 1.65599 254.198 0.631989 260.001 0.631989C268.364 0.631989 275.19 2.72266 280.481 6.90399C285.857 11.0853 288.886 16.632 289.569 23.544H276.769C276.342 20.1307 274.55 17.144 271.393 14.584C268.236 11.9387 264.054 10.616 258.849 10.616C253.985 10.616 250.017 11.896 246.945 14.456C243.873 16.9307 242.337 20.4293 242.337 24.952C242.337 28.1947 243.233 30.84 245.025 32.888C246.902 34.936 249.164 36.5147 251.809 37.624C254.54 38.648 258.337 39.8427 263.201 41.208C269.089 42.8293 273.825 44.4507 277.409 46.072C280.993 47.608 284.065 50.04 286.625 53.368C289.185 56.6107 290.465 61.048 290.465 66.68C290.465 71.032 289.313 75.128 287.009 78.968C284.705 82.808 281.292 85.9227 276.769 88.312C272.246 90.7013 266.913 91.896 260.769 91.896Z" fill="#5496B1"/>
<path d="M319.254 11.256V41.08H351.766V50.68H319.254V81.4H355.606V91H307.606V1.65599H355.606V11.256H319.254Z" fill="#5496B1"/>
<path d="M384.879 11.256V41.08H417.391V50.68H384.879V81.4H421.231V91H373.231V1.65599H421.231V11.256H384.879Z" fill="#5496B1"/>
</svg>
