<svg width="698" height="92" viewBox="0 0 698 92" fill="none" xmlns="http://www.w3.org/2000/svg">
<path d="M60.7681 1.78401V11.256H36.4481V91H24.8001V11.256H0.352051V1.78401H60.7681Z" fill="#1C3144"/>
<path d="M143.842 1.78401V91H132.194V50.552H86.7541V91H75.1061V1.78401H86.7541V40.952H132.194V1.78401H143.842Z" fill="#1C3144"/>
<path d="M175.379 11.256V41.08H207.891V50.68H175.379V81.4H211.731V91H163.731V1.65601H211.731V11.256H175.379Z" fill="#1C3144"/>
<path d="M375.609 1.78401L349.753 91H336.697L315.961 19.192L294.457 91L281.529 91.128L256.569 1.78401H268.985L288.441 77.432L309.945 1.78401H323.001L343.481 77.176L363.065 1.78401H375.609Z" fill="#1C3144"/>
<path d="M428.804 91.896C420.527 91.896 412.975 89.976 406.148 86.136C399.321 82.2107 393.903 76.792 389.892 69.88C385.967 62.8827 384.004 55.032 384.004 46.328C384.004 37.624 385.967 29.816 389.892 22.904C393.903 15.9067 399.321 10.488 406.148 6.64801C412.975 2.72268 420.527 0.76001 428.804 0.76001C437.167 0.76001 444.761 2.72268 451.588 6.64801C458.415 10.488 463.791 15.864 467.716 22.776C471.641 29.688 473.604 37.5387 473.604 46.328C473.604 55.1174 471.641 62.968 467.716 69.88C463.791 76.792 458.415 82.2107 451.588 86.136C444.761 89.976 437.167 91.896 428.804 91.896ZM428.804 81.784C435.033 81.784 440.623 80.3334 445.572 77.432C450.607 74.5307 454.532 70.392 457.348 65.016C460.249 59.64 461.7 53.4107 461.7 46.328C461.7 39.16 460.249 32.9307 457.348 27.64C454.532 22.264 450.649 18.1253 445.7 15.224C440.751 12.3227 435.119 10.872 428.804 10.872C422.489 10.872 416.857 12.3227 411.908 15.224C406.959 18.1253 403.033 22.264 400.132 27.64C397.316 32.9307 395.908 39.16 395.908 46.328C395.908 53.4107 397.316 59.64 400.132 65.016C403.033 70.392 406.959 74.5307 411.908 77.432C416.943 80.3334 422.575 81.784 428.804 81.784Z" fill="#1C3144"/>
<path d="M535.957 91L514.709 54.52H500.629V91H488.981V1.78401H517.781C524.522 1.78401 530.197 2.93601 534.805 5.24001C539.498 7.54401 542.997 10.6587 545.301 14.584C547.605 18.5093 548.757 22.9894 548.757 28.024C548.757 34.168 546.965 39.5867 543.381 44.28C539.882 48.9733 534.592 52.088 527.509 53.624L549.909 91H535.957ZM500.629 45.176H517.781C524.096 45.176 528.832 43.64 531.989 40.568C535.146 37.4107 536.725 33.2294 536.725 28.024C536.725 22.7334 535.146 18.6373 531.989 15.736C528.917 12.8347 524.181 11.384 517.781 11.384H500.629V45.176Z" fill="#1C3144"/>
<path d="M578.504 81.528H609.736V91H566.856V1.78401H578.504V81.528Z" fill="#1C3144"/>
<path d="M649.882 1.78401C659.61 1.78401 668.015 3.61868 675.098 7.28801C682.266 10.872 687.727 16.0347 691.482 22.776C695.322 29.5173 697.242 37.4533 697.242 46.584C697.242 55.7147 695.322 63.6507 691.482 70.392C687.727 77.048 682.266 82.168 675.098 85.752C668.015 89.2507 659.61 91 649.882 91H622.106V1.78401H649.882ZM649.882 81.4C661.402 81.4 670.191 78.3707 676.25 72.312C682.309 66.168 685.338 57.592 685.338 46.584C685.338 35.4907 682.266 26.8293 676.122 20.6C670.063 14.3707 661.317 11.256 649.882 11.256H633.754V81.4H649.882Z" fill="#1C3144"/>
</svg>
