<svg width="561" height="92" viewBox="0 0 561 92" fill="none" xmlns="http://www.w3.org/2000/svg">
<path d="M58.592 71.16H19.68L12.512 91H0.223999L32.48 2.29599H45.92L78.048 91H65.76L58.592 71.16ZM55.264 61.688L39.136 16.632L23.008 61.688H55.264Z" fill="#1C3144"/>
<path d="M120.394 91.896C114.506 91.896 109.215 90.872 104.522 88.824C99.914 86.6907 96.2873 83.7893 93.642 80.12C90.9967 76.3653 89.6313 72.056 89.546 67.192H101.962C102.389 71.3733 104.095 74.9147 107.082 77.816C110.154 80.632 114.591 82.04 120.394 82.04C125.941 82.04 130.293 80.6747 133.45 77.944C136.693 75.128 138.314 71.544 138.314 67.192C138.314 63.7787 137.375 61.0053 135.498 58.872C133.621 56.7387 131.274 55.1173 128.458 54.008C125.642 52.8987 121.845 51.704 117.066 50.424C111.178 48.888 106.442 47.352 102.858 45.816C99.3593 44.28 96.33 41.8907 93.77 38.648C91.2953 35.32 90.058 30.8827 90.058 25.336C90.058 20.472 91.2953 16.1627 93.77 12.408C96.2447 8.65332 99.7007 5.75199 104.138 3.70399C108.661 1.65599 113.823 0.631989 119.626 0.631989C127.989 0.631989 134.815 2.72266 140.106 6.90399C145.482 11.0853 148.511 16.632 149.194 23.544H136.394C135.967 20.1307 134.175 17.144 131.018 14.584C127.861 11.9387 123.679 10.616 118.474 10.616C113.61 10.616 109.642 11.896 106.57 14.456C103.498 16.9307 101.962 20.4293 101.962 24.952C101.962 28.1947 102.858 30.84 104.65 32.888C106.527 34.936 108.789 36.5147 111.434 37.624C114.165 38.648 117.962 39.8427 122.826 41.208C128.714 42.8293 133.45 44.4507 137.034 46.072C140.618 47.608 143.69 50.04 146.25 53.368C148.81 56.6107 150.09 61.048 150.09 66.68C150.09 71.032 148.938 75.128 146.634 78.968C144.33 82.808 140.917 85.9227 136.394 88.312C131.871 90.7013 126.538 91.896 120.394 91.896Z" fill="#1C3144"/>
<path d="M254.092 71.16H215.18L208.012 91H195.724L227.98 2.29599H241.42L273.548 91H261.26L254.092 71.16ZM250.764 61.688L234.636 16.632L218.508 61.688H250.764Z" fill="#1C3144"/>
<path d="M362.179 91.896C353.902 91.896 346.35 89.976 339.523 86.136C332.696 82.2107 327.278 76.792 323.267 69.88C319.342 62.8827 317.379 55.032 317.379 46.328C317.379 37.624 319.342 29.816 323.267 22.904C327.278 15.9067 332.696 10.488 339.523 6.64799C346.35 2.72265 353.902 0.759987 362.179 0.759987C370.542 0.759987 378.136 2.72265 384.963 6.64799C391.79 10.488 397.166 15.864 401.091 22.776C405.016 29.688 406.979 37.5387 406.979 46.328C406.979 55.1173 405.016 62.968 401.091 69.88C397.166 76.792 391.79 82.2107 384.963 86.136C378.136 89.976 370.542 91.896 362.179 91.896ZM362.179 81.784C368.408 81.784 373.998 80.3333 378.947 77.432C383.982 74.5307 387.907 70.392 390.723 65.016C393.624 59.64 395.075 53.4107 395.075 46.328C395.075 39.16 393.624 32.9307 390.723 27.64C387.907 22.264 384.024 18.1253 379.075 15.224C374.126 12.3227 368.494 10.872 362.179 10.872C355.864 10.872 350.232 12.3227 345.283 15.224C340.334 18.1253 336.408 22.264 333.507 27.64C330.691 32.9307 329.283 39.16 329.283 46.328C329.283 53.4107 330.691 59.64 333.507 65.016C336.408 70.392 340.334 74.5307 345.283 77.432C350.318 80.3333 355.95 81.784 362.179 81.784Z" fill="#1C3144"/>
<path d="M492.5 91H480.852L434.004 19.96V91H422.356V1.65599H434.004L480.852 72.568V1.65599H492.5V91Z" fill="#1C3144"/>
<path d="M524.004 11.256V41.08H556.516V50.68H524.004V81.4H560.356V91H512.356V1.65599H560.356V11.256H524.004Z" fill="#1C3144"/>
</svg>
