<svg width="432" height="432" viewBox="0 0 432 432" fill="none" xmlns="http://www.w3.org/2000/svg">
<path d="M63.2705 63.2641C102.357 24.1791 156.356 -3.05176e-05 216 -3.05176e-05C275.643 -3.05176e-05 329.646 24.1791 368.733 63.2641C407.82 102.353 432 156.356 432 216.004C432 275.649 407.82 329.652 368.733 368.736C329.646 407.828 275.643 432 216 432C182.112 432 150.048 424.199 121.5 410.282L150.36 381.457C170.679 389.52 192.823 393.95 216 393.95C312.347 393.95 393.946 312.122 393.946 216.004C393.946 166.86 374.029 122.373 341.833 90.1688C309.627 57.9685 265.139 38.0511 216 38.0511C166.857 38.0511 122.367 57.9685 90.1696 90.1688C54.9511 125.392 36.2247 173.3 38.1883 223.061L3.92847 257.192C1.34959 243.856 0 230.088 0 216.004C0 156.356 24.1824 102.353 63.2705 63.2641Z" fill="#F1F6F8"/>
<path d="M216 99.5672L216.117 99.6812V153.485L216 153.375L35.1796 334.195C27.9229 323.105 21.6499 311.319 16.5071 298.947L215.559 100.008L216 99.5672Z" fill="#F1F6F8"/>
<path d="M59.1741 364.531L215.559 207.919V261.724L87.6584 389.747C77.4468 382.192 67.9132 373.752 59.1741 364.531Z" fill="#F1F6F8"/>
</svg>
