<svg width="349" height="50" viewBox="0 0 349 50" fill="none" xmlns="http://www.w3.org/2000/svg">
<path d="M331.709 40.7821V11.1597H320.112V6.95554H348.091V11.1597H336.493V40.7821H331.709ZM25.0004 -3.05176e-05C18.0971 -3.05176e-05 11.8471 2.79848 7.3231 7.32221C2.79894 11.8464 0 18.0968 0 25.0004C0 26.6305 0.156205 28.224 0.454692 29.7675L4.42002 25.8173C4.19275 20.0578 6.36019 14.5129 10.4365 10.4362C14.1631 6.70929 19.3125 4.40404 25.0004 4.40404C30.6879 4.40404 35.8371 6.70929 39.5647 10.4362C43.2911 14.1635 45.5964 19.3125 45.5964 25.0004C45.5964 36.1252 36.1519 45.596 25.0004 45.596C22.3178 45.596 19.7549 45.0833 17.4031 44.15L14.0627 47.4863C17.367 49.0971 21.0782 50 25.0004 50C31.9036 50 38.1542 47.2023 42.6782 42.6777C47.2022 38.1542 50.0009 31.9038 50.0009 25.0004C50.0009 18.0968 47.2022 11.8464 42.6782 7.32221C38.1542 2.79848 31.9036 -3.05176e-05 25.0004 -3.05176e-05ZM25.0139 11.5371L25.0004 11.524L24.9494 11.575L1.91058 34.6003C2.50581 36.0323 3.23187 37.3963 4.07178 38.6799L25.0004 17.7517L25.0139 17.7645V11.5371ZM24.9494 24.0646L6.84897 42.191C7.86046 43.2583 8.96391 44.2352 10.1458 45.1096L24.9494 30.2921V24.0646ZM62.5559 40.7821V6.95554H77.7296C81.6275 6.95554 84.6238 7.73745 86.7177 9.29979C88.8115 10.8617 89.8582 12.9962 89.8582 15.7023C89.8582 17.5384 89.4476 19.0846 88.6257 20.3411C87.8051 21.5975 86.7012 22.5641 85.3165 23.2404L85.273 23.2613C85.8115 23.4105 86.3247 23.5969 86.8143 23.8205C88.2965 24.4971 89.4719 25.4876 90.3418 26.7925C91.2113 28.0971 91.6467 29.7157 91.6467 31.6492C91.6467 34.5481 90.5594 36.7949 88.3844 38.3897C86.21 39.9841 82.9801 40.7821 78.6953 40.7821H62.5559ZM67.3884 36.8677H78.5025C81.1764 36.8677 83.2215 36.4166 84.6391 35.5146C86.0574 34.6126 86.7658 33.195 86.7658 31.2623C86.7658 29.2976 86.0574 27.8635 84.6391 26.9615C83.2215 26.0595 81.1764 25.6084 78.5025 25.6084H67.3884V36.8677ZM67.3884 21.6941H77.2942C79.7424 21.6941 81.6435 21.2431 82.9965 20.3411C84.3496 19.4391 85.0263 18.086 85.0263 16.2823C85.0263 14.4784 84.3496 13.1253 82.9965 12.2233C81.6435 11.3213 79.7424 10.8703 77.2942 10.8703H67.3884V21.6941ZM99.1367 40.7821V6.95554H103.969V36.5779H122.283V40.7821H99.1367ZM141.274 41.1685C136.828 41.1685 133.332 39.8956 130.788 37.3508C128.242 34.8054 126.971 31.0852 126.971 26.1881V6.95554H131.803V25.9949C131.803 29.7642 132.632 32.5183 134.291 34.2579C135.95 35.9977 138.294 36.8677 141.322 36.8677C144.382 36.8677 146.742 35.9977 148.401 34.2579C150.06 32.5183 150.89 29.7642 150.89 25.9949V6.95554H155.577V26.1881C155.577 31.0852 154.312 34.8054 151.784 37.3508C149.255 39.8956 145.752 41.1685 141.274 41.1685ZM169.159 36.5779H188.875V40.7821C180.693 40.7821 172.51 40.7821 164.327 40.7821V6.95627H188.875V11.1601H169.159V21.5494H186.121V25.657H169.159V36.5779ZM196.703 40.7821V6.95554H200.665L214.769 30.7168L228.692 6.95554H232.655L232.703 40.7821H228.064L228.019 16.0937L214.769 38.4748L201.329 16.2474L201.342 40.7821H196.703ZM258.12 41.1685C255.544 41.1685 253.152 40.7331 250.945 39.8636C248.738 38.9936 246.829 37.7779 245.219 36.2152C243.608 34.653 242.351 32.8246 241.449 30.7307C240.547 28.6368 240.097 26.3497 240.097 23.8685C240.097 21.3878 240.547 19.1007 241.449 17.0068C242.351 14.9129 243.608 13.085 245.219 11.5223C246.829 9.95956 248.731 8.7443 250.921 7.87394C253.112 7.00443 255.512 6.56902 258.12 6.56902C260.698 6.56902 263.074 6.9966 265.248 7.85014C267.423 8.70398 269.324 9.91156 270.95 11.4738C272.577 13.0365 273.833 14.8647 274.72 16.9586C275.605 19.0525 276.049 21.3562 276.049 23.8685C276.049 26.3815 275.605 28.6849 274.72 30.7789C273.833 32.8732 272.577 34.701 270.95 36.2633C269.324 37.8261 267.423 39.034 265.248 39.8875C263.074 40.7413 260.698 41.1685 258.12 41.1685ZM258.12 36.8677C259.989 36.8677 261.721 36.5454 263.315 35.9012C264.91 35.2569 266.295 34.3471 267.471 33.1708C268.647 31.9954 269.565 30.6177 270.226 29.0397C270.886 27.4607 271.217 25.7372 271.217 23.8685C271.217 22.0004 270.886 20.277 270.226 18.6978C269.565 17.1199 268.647 15.7425 267.471 14.5667C266.295 13.3913 264.91 12.4811 263.315 11.8368C261.721 11.1922 259.989 10.8703 258.12 10.8703C256.22 10.8703 254.472 11.1922 252.878 11.8368C251.283 12.4811 249.89 13.3913 248.698 14.5667C247.506 15.7425 246.58 17.1199 245.92 18.6978C245.259 20.277 244.929 22.0004 244.929 23.8685C244.929 25.7372 245.259 27.4607 245.92 29.0397C246.58 30.6177 247.506 31.9954 248.698 33.1708C249.89 34.3471 251.283 35.2569 252.878 35.9012C254.472 36.5454 256.22 36.8677 258.12 36.8677ZM283.442 40.7821V6.95554H287.404L307.7 32.1615L307.699 6.95554H312.532V40.7821H308.569L288.284 15.5888L288.274 40.7821H283.442Z" fill="#1C3144"/>
</svg>
