<svg width="180" height="129" viewBox="0 0 180 129" fill="none" xmlns="http://www.w3.org/2000/svg">
<mask id="mask0_13_639" style="mask-type:luminance" maskUnits="userSpaceOnUse" x="0" y="0" width="180" height="129">
<path d="M180 0H0V128.828H180V0Z" fill="white"/>
</mask>
<g mask="url(#mask0_13_639)">
<path d="M9.44183 105.385H14.033L19.2364 119.105L24.4398 105.385H29.031L21.0729 124.898H17.3999L9.44183 105.385Z" fill="white"/>
<path d="M37.9074 105.385H41.8865L50.1507 124.898H45.5596L43.723 120.63H35.4588L33.6223 124.898H29.6433L37.9074 105.385ZM42.4986 116.666L39.744 110.569L37.2953 116.971H42.4986V116.666Z" fill="white"/>
<path d="M55.354 105.385H64.2301C66.6792 105.385 68.5155 105.996 69.7396 107.215C70.9641 108.435 71.2703 109.654 71.2703 111.789C71.2703 114.837 69.4335 116.971 66.9848 117.886L71.576 124.898H66.6792L62.3937 118.801H59.0271V124.898H54.7417V105.385H55.354ZM63.9244 114.837C66.0669 114.837 67.291 113.618 67.291 112.093C67.291 110.264 66.0669 109.35 63.9244 109.35H59.639V114.837H63.9244Z" fill="white"/>
<path d="M83.8191 105.385H87.7984L96.0632 124.898H91.7777L89.9414 120.63H81.6771L79.8407 124.898H75.5553L83.8191 105.385ZM88.4107 116.666L85.9621 110.264L83.513 116.666H88.4107Z" fill="white"/>
<path d="M101.266 105.385H105.857L111.06 113.618L116.264 105.385H120.854V124.594H116.264V112.093L110.755 120.326L105.245 112.093V124.594H100.96V105.385H101.266Z" fill="white"/>
<path d="M134.016 105.385H137.995L146.259 124.898H141.668L139.832 120.63H131.568L129.731 124.898H125.446L134.016 105.385ZM138.302 116.666L135.853 110.264L133.404 116.666H138.302Z" fill="white"/>
<path d="M151.157 105.385H160.034C162.482 105.385 164.319 105.996 165.543 107.215C166.767 108.435 167.073 109.654 167.073 111.789C167.073 114.837 165.237 116.971 162.788 117.886L167.379 124.898H162.482L158.197 118.801H154.83V124.898H150.545V105.385H151.157ZM159.728 114.837C161.87 114.837 163.094 113.618 163.094 112.093C163.094 110.264 161.87 109.35 159.728 109.35H155.442V114.837H159.728Z" fill="white"/>
<path d="M65.1485 49.8944C67.9028 46.8456 70.9637 43.7965 74.3307 41.0525C75.861 39.8329 77.3916 38.3085 79.228 37.3938C80.1459 36.784 80.7582 36.4791 81.6771 35.8693C82.595 35.5644 83.2073 34.9547 84.1252 34.9547C85.9616 34.3449 87.7984 34.04 89.3286 34.04C90.2466 34.04 91.165 34.04 92.083 34.04C92.39 34.04 93.0018 34.04 93.3079 34.3449C93.6141 34.3449 93.9198 34.3449 94.2259 34.6497C94.532 34.6497 94.532 34.6497 95.1443 34.6497C95.1443 34.6497 95.45 34.6497 96.0623 34.6497C96.3684 34.6497 95.7561 34.6497 97.2863 34.3449C98.2052 33.4302 98.8175 34.04 99.7354 31.296C99.7354 27.9422 98.8175 27.9422 98.8175 27.9422C98.5113 27.6372 98.2052 27.3323 98.2052 27.3323C97.8991 27.3323 97.8991 27.0275 97.5925 27.0275L96.9802 26.7226L96.0623 26.4176C95.45 26.1128 94.8382 26.1128 94.2259 25.8079L92.6957 25.1981C92.39 25.1981 92.0829 24.8932 91.7768 24.8932C90.5527 24.2835 89.3286 23.3688 88.4107 22.1492C87.4923 20.9296 86.5734 19.4051 85.6555 17.5758C85.3493 16.6611 85.0432 15.7464 84.4314 14.5269C83.513 13.0023 83.2073 12.0877 82.595 10.8682C81.3709 8.73388 80.1459 6.59965 78.0035 4.77033C78.6157 4.77033 78.9219 5.07521 79.5337 5.07521C81.3709 5.68501 83.2073 6.59965 85.0432 7.8192C88.4107 9.95348 91.165 13.0023 93.3079 16.6611C94.532 18.4905 95.45 20.3198 96.3684 22.4541L97.2863 23.9785C97.5925 24.5883 97.5925 24.8932 98.8175 25.8079C99.4293 26.1128 100.042 26.4176 100.96 26.4176C101.266 26.4176 101.878 26.4176 102.49 26.1128C102.796 26.1128 103.102 25.8079 103.102 25.503C103.102 25.1981 103.408 24.8932 103.408 24.5883C103.408 24.2835 103.408 23.9785 103.102 23.6737C102.49 22.759 102.184 23.0639 101.878 22.759H101.572C101.572 22.759 101.572 22.759 101.266 22.759C101.266 22.759 100.96 22.759 100.96 22.4541L101.266 22.1492L102.49 21.2345C104.327 20.0149 106.163 18.7953 107.999 17.8807C111.366 15.4415 115.346 13.6122 119.324 12.0877C127.283 9.0388 135.853 7.51432 144.117 7.8192C148.402 7.8192 152.381 8.42905 156.666 9.34372C157.891 9.64856 158.809 9.64856 160.034 9.95348C160.34 9.95348 160.645 9.95348 161.258 9.95348C161.564 9.95348 161.87 9.95348 162.482 9.64856C162.176 9.95348 161.564 10.5632 161.258 10.8682L156.36 15.1366C153.605 17.8807 149.933 20.0149 146.565 22.4541C145.341 23.3688 143.811 23.9785 142.586 24.8932C141.668 25.503 141.056 25.8079 140.138 26.1128C139.22 26.4176 138.608 26.7226 137.69 27.0275C136.771 27.3323 135.853 27.6372 134.935 27.9422C134.016 28.247 133.098 28.5519 131.874 28.8568C131.261 28.8568 130.649 29.1617 130.343 29.4666C129.425 29.7715 127.283 30.3813 126.059 31.296C124.834 32.2106 123.609 33.1253 122.385 34.6497C122.079 34.9547 122.079 34.9547 121.774 35.2596C121.774 35.5644 121.467 35.5644 121.467 35.8693L120.855 36.4791C120.855 36.4791 120.549 37.0889 120.549 37.3938C120.549 37.6987 120.242 38.3085 120.549 39.2231C120.549 39.8329 121.161 41.3574 122.385 42.2721C123.303 43.1868 124.222 43.1868 125.14 43.4916C125.752 43.4916 126.059 43.4916 126.365 43.4916C127.589 43.1868 127.895 43.1868 128.201 42.8819C129.425 42.2721 129.731 41.9672 130.343 41.6623C131.567 40.7476 132.18 40.1378 133.098 39.2231C133.404 38.9182 134.935 38.3085 137.077 37.6987C137.996 37.3938 138.914 37.0889 140.138 36.784L138.914 38.0035C135.853 41.0525 132.792 44.1015 129.731 46.8456C123.303 52.6384 116.876 58.1264 109.836 63.3096C106.469 65.7488 102.796 68.188 99.1236 70.0171C95.45 71.5415 91.165 73.3712 86.8805 72.7611L86.5734 73.6759C91.165 74.8955 95.7561 73.6759 99.7354 72.1516C104.021 70.6272 107.999 68.4928 111.672 66.3588C119.324 61.7852 126.059 56.602 133.098 51.114C140.138 45.626 146.565 40.1378 153.299 34.3449C156.666 31.296 160.034 28.8568 163.094 25.503C164.624 23.9785 166.155 22.4541 167.685 20.6247C168.297 19.71 169.215 19.1003 169.828 18.1856L171.358 16.3562L171.971 15.4415L172.277 14.8317C172.582 14.5269 172.582 14.5269 172.889 13.3073C172.889 12.6975 173.195 13.0023 172.889 11.4779C172.582 10.2584 172.277 9.64856 171.664 9.0388C171.664 8.42905 171.664 8.12412 171.664 7.51432C171.664 6.90457 171.358 5.98989 171.053 5.38009C170.439 3.85564 168.909 2.94096 167.991 2.63607C165.849 2.02629 164.318 2.02629 162.788 2.33118C162.176 2.33118 161.258 2.63607 160.645 2.94096H160.34C160.34 2.94096 160.34 2.94096 160.034 2.94096C159.115 2.94096 158.196 2.94096 156.972 2.63607C152.993 2.33118 148.402 2.02629 143.811 2.33118C134.628 2.94096 126.059 5.38009 117.794 9.0388C113.815 10.8682 110.142 13.0023 106.163 15.1366C104.327 16.3562 102.49 17.5758 100.653 18.7953L99.4293 19.71L98.8175 20.3198C98.8175 20.3198 98.8175 20.3198 98.5113 20.3198C97.5925 18.4905 96.6745 16.3562 95.7561 14.5269C94.8382 12.6975 93.6141 10.8682 92.083 9.0388C90.5527 7.20944 88.7164 5.68501 86.8805 4.46542C85.0432 3.24585 82.9012 2.02629 80.7582 1.11161C79.5337 0.806711 78.3096 0.196931 77.0855 0.196931C75.861 -0.107961 74.6369 -0.107961 72.8001 0.196931C72.1882 0.501825 71.8821 0.501825 71.2698 1.11161C70.6576 1.4165 70.3514 2.33118 70.0457 3.24585C69.7396 3.85564 69.7396 4.77033 70.0457 5.68501C70.3514 6.59965 70.6576 6.90457 71.2698 7.51432C72.4944 8.73388 73.7185 9.0388 73.4123 9.34372C74.3307 10.5632 75.2491 12.0877 75.861 13.917C76.1671 14.8317 76.4732 15.7464 76.7794 16.6611C77.0855 17.5758 77.3916 18.7953 77.6978 20.0149C78.6157 22.4541 79.5337 24.5883 81.0648 26.7226C81.3709 27.0275 81.6771 27.6372 81.9828 27.9422C81.6771 27.9422 81.3709 27.9422 81.3709 28.247C76.4732 30.3813 73.1062 33.4302 70.0457 36.784C66.9848 40.1378 64.2301 43.7965 62.0876 47.4552C59.9451 51.114 57.496 55.0776 56.5781 59.6508L57.4965 59.956C59.3328 56.2972 62.3937 52.9432 65.1485 49.8944Z" fill="white"/>
<path d="M156.054 55.9911C147.79 56.9059 139.526 60.2599 132.792 65.7479C130.955 67.2723 129.731 68.4919 128.201 69.4067C126.671 70.6263 125.14 71.5407 123.61 72.7603C120.549 74.8947 117.182 76.4191 113.509 77.9435C106.469 80.6879 98.8176 82.5171 91.1651 82.8219C83.5131 83.1262 75.5549 81.9071 68.8213 77.9435C62.0872 73.6751 55.3536 69.1015 47.3955 66.3575C43.4165 65.1379 39.1314 64.5283 34.8463 64.8331C30.5611 65.1379 26.276 66.3575 22.603 67.5771C15.5632 70.0163 7.91118 71.2359 -0.046875 69.4067V70.0163C3.32001 72.1507 7.60514 73.3703 11.5842 73.6751C15.8693 73.9799 20.1544 73.3703 24.1335 72.1507C31.4794 69.7115 38.8253 69.1015 46.4775 70.0163C50.1502 70.6263 54.1295 71.8459 57.4961 73.3703C61.1693 74.8947 64.5363 77.0287 67.9029 79.1635C74.9426 83.7362 82.9012 85.8711 91.1651 86.4807C99.4294 87.0903 107.693 85.8711 115.652 83.1262C119.63 81.6027 123.303 80.0779 126.977 77.9435C128.813 76.7239 130.649 75.8091 132.18 74.5895C134.016 73.3703 135.547 71.8459 136.771 70.6263C142.586 65.7479 149.321 62.3939 156.666 60.8695C164.012 59.3451 171.971 59.0403 179.622 60.5647L179.928 59.9547C172.889 56.2963 164.318 55.0767 156.054 55.9911Z" fill="white"/>
</g>
</svg>
