<svg width="30" height="23" viewBox="0 0 30 23" fill="none" xmlns="http://www.w3.org/2000/svg">
<g clip-path="url(#clip0_13_684)">
<path d="M29.7516 2.42344C29.4826 1.71206 29.0036 1.09931 28.3782 0.666477C27.7528 0.233649 27.0106 0.00120965 26.2501 0L3.75005 0C2.97656 0.00205972 2.22263 0.243255 1.59157 0.690535C0.960511 1.13781 0.483203 1.76929 0.225052 2.49844C0.0739848 2.89831 -0.00228278 3.32255 5.20275e-05 3.75V18.75C0.000630506 19.4965 0.223988 20.2258 0.641528 20.8446C1.05907 21.4634 1.65179 21.9435 2.3438 22.2234C2.7899 22.4069 3.26771 22.5009 3.75005 22.5H26.2501C26.7084 22.5026 27.1627 22.4134 27.586 22.2375C28.4129 21.9339 29.1033 21.3433 29.5313 20.5734C29.8401 20.0154 30.0014 19.3878 30.0001 18.75V3.75C29.9996 3.29629 29.9154 2.84656 29.7516 2.42344ZM2.49849 3.75C2.49972 3.41845 2.63198 3.10082 2.86643 2.86638C3.10087 2.63193 3.4185 2.49967 3.75005 2.49844H26.2501C26.5816 2.49967 26.8992 2.63193 27.1337 2.86638C27.3681 3.10082 27.5004 3.41845 27.5016 3.75V3.98906L17.536 11.4891L15.4688 13.0875L15.0001 13.4391L14.5313 13.0734L12.4407 11.5125L2.49849 4.03594V3.75ZM2.49849 18.75V7.1625L10.3641 13.0734L2.52661 18.9609C2.50926 18.8919 2.49983 18.8212 2.49849 18.75ZM5.31099 20.0016L12.4501 14.6391L14.2501 15.9984C14.4656 16.1627 14.7291 16.2516 15.0001 16.2516C15.271 16.2516 15.5345 16.1627 15.7501 15.9984L17.536 14.6484L24.6235 20.0016H5.31099ZM27.5016 18.75C27.5016 18.8388 27.489 18.9272 27.4641 19.0125L19.6126 13.0734L27.5016 7.11094V18.75Z" fill="#5496B1"/>
</g>
<defs>
<clipPath id="clip0_13_684">
<rect width="30" height="22.5" fill="white"/>
</clipPath>
</defs>
</svg>
