<svg width="507" height="200" viewBox="0 0 507 200" fill="none" xmlns="http://www.w3.org/2000/svg">
<mask id="mask0_111_22" style="mask-type:alpha" maskUnits="userSpaceOnUse" x="0" y="0" width="507" height="199">
<rect width="507" height="199" fill="#D9D9D9"/>
</mask>
<g mask="url(#mask0_111_22)">
<path d="M122.529 -30.4766C153.744 -61.6902 196.868 -81 244.5 -81C292.131 -81 335.259 -61.6902 366.475 -30.4766C397.69 0.740143 417 43.8678 417 91.503C417 139.136 397.69 182.264 366.475 213.477C335.259 244.696 292.131 264 244.5 264C217.437 264 191.83 257.77 169.031 246.656L192.079 223.635C208.306 230.075 225.99 233.613 244.5 233.613C321.444 233.613 386.61 168.264 386.61 91.503C386.61 52.2562 370.704 16.7283 344.992 -8.9902C319.271 -34.7057 283.743 -50.6119 244.5 -50.6119C205.254 -50.6119 169.724 -34.7057 144.01 -8.9902C115.885 19.1392 100.929 57.3991 102.498 97.1393L75.1373 124.396C73.0778 113.746 72 102.751 72 91.503C72 43.8678 91.3124 0.740143 122.529 -30.4766Z" fill="#BCD4DE"/>
<path d="M244.5 -1.4845L244.593 -1.39349V41.5751L244.5 41.4871L100.095 185.892C94.2995 177.035 89.2898 167.623 85.1828 157.742L244.148 -1.13235L244.5 -1.4845Z" fill="#BCD4DE"/>
<path d="M119.257 210.118L244.148 85.0462V128.016L142.005 230.256C133.85 224.223 126.236 217.483 119.257 210.118Z" fill="#BCD4DE"/>
</g>
</svg>
